<?xml version="1.0" encoding="utf-8"?>
<!-- Generator: Adobe Illustrator 19.1.0, SVG Export Plug-In . SVG Version: 6.00 Build 0)  -->
<svg version="1.1" id="Layer_1" xmlns="http://www.w3.org/2000/svg" xmlns:xlink="http://www.w3.org/1999/xlink" x="0px" y="0px"
	 viewBox="-212.9 379 183.4 35.5" enable-background="new -212.9 379 183.4 35.5" xml:space="preserve">
<g>
	<path fill="#FFFFFF" d="M-141.1,395.9"/>
	<path fill="#010101" d="M-140.1,406.9c1,1.2,3.4-1.5,3.7-4.2s0.4-18,0.2-18.4s-1.4-1.4-2.6-1.1s-5.9,3.5-5.9,8.3
		c0,3.6,3,4.8,3.6,4.5c0.6-0.4-1.6-0.9-1.1-4.5c0.4-3.7,3.1-6.4,3.1-6.4s0.6,17.9-0.4,20.3C-139.9,406.3-140.4,406.6-140.1,406.9z"
		/>
	<g>
		<path fill="#010101" d="M-60.5,389.8c-1.8-0.1-2.9,3.4-2.9,3.4c0-10,1-8.7,1-9.4c0-0.6-3.3-1.3-3.4-0.6c-0.1,0.7,0,11.6-0.1,13.7
			l-0.1,2.3c-0.2,1.1-0.8,3.7-1.6,3.7c-1.1,0-1.2-2-1.2-2s0.3-9.1-0.2-9.7s-2.2-0.6-2.4-0.5s-0.2,1.2-0.2,1.2
			c-0.4-0.6-1.6-1.6-2.6-1.6c-3.7,0-4.4,5.3-4.4,6.7c0,0.4,0,0.9,0,1.4v0.3c-0.2,0.6-0.7,1.5-1.4,2.3c0-4.7,0-9.6-0.1-9.9
			c-0.2-0.5-2.2-0.8-2.4-0.8s-0.1,1.6-0.1,1.6s-0.5-2-3-1.9c-2.4,0.2-3.7,3.5-4.1,5.3s-0.2,5.3-0.2,5.3s-0.9,2.2-1.8,2.2
			s-1.2-1.9-1.2-1.9s0.1-9.4-0.2-9.7s-2-0.6-2.3-0.5s-0.4,1-0.4,1c-0.2-0.5-1.4-1.7-2.6-1.6c-3.5,0.2-4.4,5.7-4.4,6.2
			s-0.1,2.3-0.1,2.3s-0.9,3.6-2.8,3.8c-1.9,0.2-1-12.7-1-12.7s3.7,0.4,4,0c0.2-0.4,0.5-1.6,0.4-1.9c-0.2-0.3-4.1-0.2-4.1-0.2
			s0.2-3.4,0-3.7c-0.2-0.3-1.8-1-2.4-0.9s-0.7,0.7-0.7,0.7l0.2,3.6h-3.4c-0.7,0.9-0.5,2.3-0.5,2.3h3.5c0,0,0.2,6.2,0.1,7.6
			c-0.2,1.3-2.4,3.9-2.4,3.9c1.1-3-4.4-6.5-4.4-6.5c1.8-2.2,1.9-4.3,0.7-4.3c-1.2,0-2.6,0.1-3.5,1.9s0.6,3,0.6,3s-3.4,6.2-4.4,6.4
			c-1.1,0.2-0.2-9.3-0.2-9.7c-0.1-0.5-1.9-1.7-2.7-1.5c-2.6,0.8-4.8,7.3-4.8,7.3l-0.1-6.8c-1.2-0.6-2.3-0.4-2.3-0.3
			c-0.2,0.8,0,12.5,0,13.2c0,0.8,2.6,0.9,2.6-0.2c-0.2-6,4.4-11.8,4.6-10.8c0.9,3.9-0.9,11.1,1.7,11.4s6.5-8.1,6.5-8.1
			c2.6,1.8,3.4,3.7,3.4,4.1c0,0.3,0.2,1.9-1.2,2.2c-1.4,0.3-2.3-1.1-2.8-1.1s-1.7,1.5-1.2,1.9c0.5,0.5,2.6,1.1,4.2,1.1
			c3.7,0,5.8-5.1,5.8-5.1c0.2,1.4,1.2,4.8,3.4,5.1c2.2,0.2,3.7-3.5,3.7-3.5c0.2,0.6,1.3,3.2,3.7,3.4c2.4,0.2,3.8-2.7,3.8-2.7
			s0.8,2.4,2.7,2.8c1.9,0.4,3.1-2.4,3.1-2.4c0.6,1.7,1.9,2.3,3.2,2.5c1.9,0.2,3.5-2.1,3.5-2.1l0.1,1.2c-4.1,3.7-5.9,5.3-5.8,7.3
			c0,0.7,0.3,3.7,3.9,3.7s4.2-4.4,4.4-5.1c0.1-0.3,0.1-3.1,0.1-6.5l1.5-1.8c0.2,0.5,0.4,0.9,0.4,0.9s0.7,1.9,3,2.1
			c2.8,0.2,4-2.8,4-2.8s0.9,2.9,2.8,3c1.3,0,2.1-0.9,2.5-1.9c0.1,0.8,0.4,1.6,0.8,1.6c1,0,1.2-0.5,1.2-0.5s1.2,0.7,3,0.7
			c4.3,0.1,4.4-4.4,4.4-6.4C-56.4,390.8-58.8,389.9-60.5,389.8z M-95.8,397.9c-0.4,4.8-1.9,4.9-2.6,4.9s-2.3-1.4-1.9-5.4
			c0.5-4,1.6-5,2.4-5C-96.7,392.4-95.4,393.1-95.8,397.9z M-85.5,402.8c-1.8,0-1.7-3-1.7-4.9s0.6-5.2,2.3-5.4
			c0.9-0.1,2.3,0.8,2.2,4.4C-82.8,400.5-83.7,402.8-85.5,402.8z M-82.7,411c-0.2,3.3-3.9,3.2-3.9,0.6s4.1-6,4.1-6
			S-82.4,407.7-82.7,411z M-71.5,397.6c-0.2,3.7-1.2,5.1-2.6,5.1s-2.2-2.5-1.9-5.5c0.3-3.2,1.2-5,2.3-4.9
			C-72.4,392.4-71.4,393.8-71.5,397.6z M-58.8,398c-0.5,4.6-2.4,4.9-3,4.9s-1.6-0.7-1.6-0.7s-0.1-9.9,2.7-10.4
			C-60.1,391.6-58.3,393.4-58.8,398z"/>
		<path fill="#010101" d="M-29.9,397.3c-0.3-0.1-0.6,0.1-1,1.2c-0.3,0.7-0.7,1.5-1.4,2.3c0-4.7,0-9.6-0.1-9.9
			c-0.2-0.5-2.2-0.8-2.4-0.8s-0.1,1.6-0.1,1.6v4.8c-0.1,3.6-1,5.9-2.8,5.9s-1.9-2.9-1.9-4.9c0.2-4.2,1.1-7,1-7.1
			c-0.7-0.5-2-0.6-2.2-0.5c-0.3,0.1-1.1,5.2-1.1,5.2c-0.4,1.8-0.3,3.8-0.3,3.8s-0.3,3.6-1.7,3.7c-0.6,0-1-0.9-1.1-1.5
			c0.3-1.2,0.4-2.4,0.4-3.2c0-7.2-2.4-8.2-4.1-8.2c-1.8-0.1-2.9,3.4-2.9,3.4c0-10,1-8.7,1-9.4c0-0.6-3.3-1.3-3.4-0.6
			c-0.1,0.7,0,11.6-0.1,13.7l-0.1,3c0,0-0.1,4.3,0.9,4.3s1.2-0.5,1.2-0.5s1.2,0.7,3,0.7c1.5,0.1,2.5-0.5,3.1-1.3
			c0.1,0.3,0.6,1,1.3,1.1c2.6,0,2.9-3,2.9-3c0.7,2.6,2.1,3,3.4,3.1c1.9,0.2,3.5-2.1,3.5-2.1l0.1,1.2c-4.1,3.7-5.9,5.3-5.8,7.3
			c0,0.7,0.3,3.7,3.9,3.7c3.6,0,4.2-4.4,4.4-5.1c0.1-0.3,0.1-3.1,0.1-6.5l1.5-1.8C-29.6,399.2-29.2,397.6-29.9,397.3z M-47.3,398
			c-0.5,4.6-2.4,4.9-3,4.9s-1.6-0.7-1.6-0.7s-0.1-9.9,2.7-10.4C-48.5,391.6-46.8,393.4-47.3,398z M-35,410.7
			c-0.2,3.3-3.9,3.2-3.9,0.6s4.1-6,4.1-6S-34.7,407.4-35,410.7z"/>
	</g>
	<path fill="#010101" d="M-65.8,400.1"/>
	<path fill="#010101" d="M-57.4,401.8c0,0,0.2,1.2,1.2,0.9c1.3-0.4,1.8-2.2,1.8-3.7l0.3,2.9c0,0-1,2.4-2.2,2.4
		c-1.2,0.1-2.3-0.9-2.3-0.9L-57.4,401.8z"/>
</g>
<line fill="none" stroke="#000000" stroke-width="0.5" stroke-linecap="round" stroke-miterlimit="10" x1="-162" y1="379.2" x2="-162" y2="410.5"/>
<g>
	<circle cx="-206.3" cy="388.1" r="1.8"/>
	<path d="M-190.4,395.9c0-4.1-3.4-7.5-7.6-7.5c-4.2,0-7.6,3.4-7.6,7.6c0,4.2,3.4,7.6,7.6,7.6c1.9,0,3.6-0.7,5-1.9c0,0.1,0,0.2,0,0.3
		c-0.1,1.4-0.3,2.2-0.5,2.7c-0.3,0.7-0.6,1.2-1.1,1.7c-0.5,0.5-1,0.8-1.7,1.1c-0.5,0.2-1.3,0.4-2.7,0.5c-0.1,0-0.3,0-0.4,0v0
		c-2.8,0-3.3,0-4.6-0.1c-1.4-0.1-2.2-0.3-2.7-0.5c-0.7-0.3-1.2-0.6-1.7-1.1s-0.8-1-1.1-1.7c-0.1-0.3-0.2-0.7-0.3-1.2h-2.7
		c0.1,0.9,0.3,1.6,0.6,2.2c0.4,1,0.9,1.8,1.7,2.6c0.8,0.8,1.6,1.3,2.6,1.7c0.9,0.4,2,0.6,3.6,0.7c1.6,0.1,2.1,0.1,6.1,0.1
		c0.2,0,0.4,0,0.6,0l0,0c0.9-0.1,1.6-0.3,2.2-0.6c1-0.5,1.7-1,2.5-1.8c0.8-0.8,1.3-1.6,1.7-2.6c0.4-0.9,0.6-2,0.7-3.6
		c0.1-1.3,0.1-1.9,0.1-4.6L-190.4,395.9z M-198,400.9c-2.7,0-4.9-2.2-4.9-4.9c0-2.7,2.2-4.9,4.9-4.9c2.7,0,4.9,2.2,4.9,4.9
		C-193,398.7-195.2,400.9-198,400.9z"/>
	<g>
		<path d="M-183.5,389.9c-0.1-1.6-0.3-2.6-0.7-3.6c-0.4-1-0.9-1.8-1.7-2.6c-0.8-0.8-1.6-1.3-2.6-1.7c-0.9-0.4-2-0.6-3.6-0.7
			c-1.6-0.1-2.1-0.1-6.1-0.1c-4,0-4.5,0-6.1,0.1c-1.6,0.1-2.6,0.3-3.6,0.7c-1,0.4-1.8,0.9-2.6,1.7c-0.8,0.8-1.3,1.6-1.7,2.6
			c-0.4,0.9-0.6,2-0.7,3.6c-0.1,1.6-0.1,2.1-0.1,6.1c0,4,0,4.5,0.1,6.1c0,0.2,0,0.4,0,0.5h2.7c0-0.2,0-0.4,0-0.7
			c-0.1-1.6-0.1-2-0.1-6s0-4.4,0.1-6c0.1-1.4,0.3-2.2,0.5-2.7c0.3-0.7,0.6-1.2,1.1-1.7c0.5-0.5,1-0.8,1.7-1.1
			c0.5-0.2,1.3-0.4,2.7-0.5c1.6-0.1,2-0.1,6-0.1s4.4,0,6,0.1c1.4,0.1,2.2,0.3,2.7,0.5c0.7,0.3,1.2,0.6,1.7,1.1
			c0.5,0.5,0.8,1,1.1,1.7c0.2,0.5,0.4,1.3,0.5,2.7c0.1,1.6,0.1,2,0.1,6s0,4.4-0.1,6c-0.1,1.4-0.3,2.2-0.5,2.7
			c-0.3,0.7-0.6,1.2-1.1,1.7c-0.5,0.5-1,0.8-1.7,1.1c-0.4,0.2-0.6,0.3-1.4,0.5c-0.2,0.3-0.5,0.6-0.8,0.9c-0.8,0.8-1.5,1.3-2.5,1.8
			c-0.1,0-0.1,0.1-0.2,0.1c1.3,0,1.3,0,2.3-0.1c1.6-0.1,2.6-0.3,3.6-0.7c1-0.4,1.8-0.9,2.6-1.7c0.8-0.8,1.3-1.6,1.7-2.6
			c0.4-0.9,0.6-2,0.7-3.6c0.1-1.6,0.1-2.1,0.1-6.1C-183.4,392-183.4,391.5-183.5,389.9z"/>
	</g>
</g>
</svg>
