<?xml version="1.0" encoding="utf-8"?>
<!-- Generator: Adobe Illustrator 19.1.0, SVG Export Plug-In . SVG Version: 6.00 Build 0)  -->
<svg version="1.1" id="Layer_1" xmlns="http://www.w3.org/2000/svg" xmlns:xlink="http://www.w3.org/1999/xlink" x="0px" y="0px"
	 viewBox="-212.9065552 378.9500122 183.3547974 35.5499573"
	 enable-background="new -212.9065552 378.9500122 183.3547974 35.5499573" xml:space="preserve">
<g>
	<path fill="#FFFFFF" d="M-141.0999908,395.9000244"/>
	<path fill="#010101" d="M-140.0999908,406.9000244c1,1.2000122,3.3999939-1.5,3.6999969-4.2000122
		s0.3999939-18,0.1999969-18.3999939s-1.3999939-1.3999939-2.6000061-1.1000061s-5.8999939,3.5-5.8999939,8.2999878
		c0,3.6000061,3,4.7999878,3.6000061,4.5c0.6000061-0.3999939-1.6000061-0.8999939-1.1000061-4.5
		c0.3999939-3.7000122,3.1000061-6.3999939,3.1000061-6.3999939S-138.4999847,403-139.4999847,405.3999939
		C-139.8999939,406.3000183-140.3999939,406.6000061-140.0999908,406.9000244z"/>
	<g>
		<path fill="#010101" d="M-60.4999962,389.8000183c-1.7999992-0.1000061-2.9000015,3.3999939-2.9000015,3.3999939
			c0-10,1-8.7000122,1-9.3999939c0-0.6000061-3.3000069-1.2999878-3.4000053-0.6000061
			c-0.0999985,0.7000122,0,11.6000061-0.0999985,13.7000122L-66,399.2000122
			c-0.1999969,1.1000061-0.8000031,3.7000122-1.5999985,3.7000122c-1.0999985,0-1.1999969-2-1.1999969-2
			s0.3000031-9.1000061-0.1999969-9.7000122s-2.1999969-0.6000061-2.4000015-0.5s-0.1999969,1.2000122-0.1999969,1.2000122
			c-0.4000015-0.6000061-1.5999985-1.6000061-2.5999985-1.6000061c-3.6999969,0-4.4000015,5.2999878-4.4000015,6.7000122
			c0,0.3999939,0,0.8999939,0,1.3999939v0.2999878c-0.1999969,0.6000061-0.6999969,1.5-1.4000015,2.2999878
			c0-4.7000122,0-9.6000061-0.0999985-9.8999939c-0.1999969-0.5-2.1999969-0.7999878-2.4000015-0.7999878
			s-0.0999985,1.6000061-0.0999985,1.6000061s-0.5-2-3-1.8999939c-2.4000015,0.2000122-3.6999969,3.5-4.0999985,5.2999878
			s-0.1999969,5.2999878-0.1999969,5.2999878s-0.9000015,2.2000122-1.8000031,2.2000122s-1.1999969-1.8999939-1.1999969-1.8999939
			s0.0999985-9.3999939-0.1999969-9.7000122s-2-0.6000061-2.3000031-0.5s-0.4000015,1-0.4000015,1
			c-0.1999969-0.5-1.4000015-1.7000122-2.5999985-1.6000061c-3.5,0.2000122-4.4000015,5.7000122-4.4000015,6.2000122
			s-0.0999985,2.2999878-0.0999985,2.2999878s-0.9000015,3.6000061-2.8000031,3.7999878
			c-1.9000015,0.2000122-1-12.7000122-1-12.7000122s3.6999969,0.3999939,4,0c0.1999969-0.3999939,0.5-1.6000061,0.4000015-1.8999939
			c-0.1999969-0.2999878-4.0999985-0.2000122-4.0999985-0.2000122s0.1999969-3.3999939,0-3.7000122
			c-0.1999969-0.2999878-1.8000031-1-2.4000015-0.8999939s-0.6999969,0.7000122-0.6999969,0.7000122l0.1999969,3.6000061h-3.4000015
			c-0.6999969,0.8999939-0.5,2.2999878-0.5,2.2999878h3.5c0,0,0.1999969,6.2000122,0.0999985,7.6000061
			c-0.1999969,1.2999878-2.4000015,3.8999939-2.4000015,3.8999939c1.0999985-3-4.4000015-6.5-4.4000015-6.5
			c1.8000031-2.2000122,1.9000015-4.2999878,0.6999969-4.2999878c-1.1999969,0-2.5999985,0.1000061-3.5,1.8999939
			s0.5999985,3,0.5999985,3S-122,401.3999939-123,401.5999756c-1.0999985,0.2000122-0.1999969-9.2999878-0.1999969-9.7000122
			c-0.0999985-0.5-1.9000015-1.7000122-2.6999969-1.5c-2.5999908,0.7999878-4.7999878,7.2999878-4.7999878,7.2999878
			l-0.1000061-6.7999878c-1.1999969-0.6000061-2.3000031-0.3999939-2.3000031-0.2999878c-0.1999969,0.7999878,0,12.5,0,13.2000122
			c0,0.7999878,2.6000061,0.8999939,2.6000061-0.2000122c-0.1999969-6,4.3999939-11.7999878,4.5999908-10.7999878
			c0.9000015,3.8999939-0.9000015,11.1000061,1.6999969,11.3999939s6.5-8.1000061,6.5-8.1000061
			c2.5999985,1.7999878,3.4000015,3.7000122,3.4000015,4.1000061c0,0.2999878,0.1999969,1.8999939-1.1999969,2.2000122
			c-1.4000015,0.2999878-2.3000031-1.1000061-2.8000031-1.1000061s-1.6999969,1.5-1.1999969,1.8999939
			c0.5,0.5,2.5999985,1.1000061,4.1999969,1.1000061c3.6999969,0,5.8000031-5.1000061,5.8000031-5.1000061
			c0.1999969,1.3999939,1.1999969,4.7999878,3.4000015,5.1000061c2.1999969,0.2000122,3.6999969-3.5,3.6999969-3.5
			c0.1999969,0.6000061,1.3000031,3.2000122,3.6999969,3.3999939c2.4000015,0.2000122,3.8000031-2.7000122,3.8000031-2.7000122
			s0.8000031,2.3999939,2.6999969,2.7999878c1.9000015,0.3999939,3.0999985-2.3999939,3.0999985-2.3999939
			c0.5999985,1.7000122,1.9000015,2.2999878,3.1999969,2.5c1.9000015,0.2000122,3.5-2.1000061,3.5-2.1000061l0.0999985,1.2000122
			c-4.0999985,3.7000122-5.9000015,5.2999878-5.8000031,7.2999878c0,0.7000122,0.3000031,3.7000122,3.9000015,3.7000122
			s4.1999969-4.3999939,4.4000015-5.1000061c0.0999985-0.2999878,0.0999985-3.1000061,0.0999985-6.5l1.5-1.7999878
			c0.1999969,0.5,0.4000015,0.8999939,0.4000015,0.8999939s0.6999969,1.8999939,3,2.1000061
			c2.8000031,0.2000122,4-2.7999878,4-2.7999878s0.9000015,2.8999939,2.8000031,3c1.3000031,0,2.0999985-0.8999939,2.5-1.8999939
			C-65.4000015,403.1999817-65.0999985,404-64.6999969,404c1.0000038,0,1.2000046-0.5,1.2000046-0.5
			s1.2000008,0.7000122,3,0.7000122c4.2999992,0.1000061,4.4000015-4.3999939,4.4000015-6.3999939
			C-56.3999939,390.8000183-58.7999954,389.9000244-60.4999962,389.8000183z M-95.7999954,397.9000244
			c-0.4000015,4.7999878-1.9000015,4.8999939-2.5999985,4.8999939s-2.3000031-1.3999939-1.9000015-5.3999939
			c0.5-4,1.5999985-5,2.4000015-5C-96.6999969,392.4000244-95.4000015,393.1000061-95.7999954,397.9000244z M-85.5,402.8000183
			c-1.8000031,0-1.6999969-3-1.6999969-4.8999939s0.5999985-5.2000122,2.3000031-5.3999939
			c0.9000015-0.1000061,2.3000031,0.7999878,2.1999969,4.3999939C-82.7999954,400.5-83.6999969,402.8000183-85.5,402.8000183z
			 M-82.6999969,411c-0.1999969,3.2999878-3.9000015,3.2000122-3.9000015,0.6000061s4.0999985-6,4.0999985-6
			S-82.4000015,407.7000122-82.6999969,411z M-71.5,397.6000061c-0.1999969,3.7000122-1.1999969,5.1000061-2.5999985,5.1000061
			s-2.1999969-2.5-1.9000015-5.5c0.3000031-3.2000122,1.1999969-5,2.3000031-4.8999939
			C-72.4000015,392.4000244-71.4000015,393.8000183-71.5,397.6000061z M-58.7999954,398
			c-0.5,4.6000061-2.4000015,4.8999939-3,4.8999939s-1.5999985-0.7000122-1.5999985-0.7000122
			s-0.0999985-9.8999939,2.7000008-10.3999939C-60.0999947,391.6000061-58.2999954,393.4000244-58.7999954,398z"/>
		<path fill="#010101" d="M-29.8999939,397.3000183c-0.2999992-0.1000061-0.6000004,0.1000061-1,1.2000122
			c-0.2999992,0.7000122-0.7000008,1.5-1.4000015,2.2999878c0-4.7000122,0-9.6000061-0.0999985-9.8999939
			c-0.2000008-0.5-2.2000008-0.7999878-2.4000015-0.7999878s-0.0999985,1.6000061-0.0999985,1.6000061v4.7999878
			c-0.0999985,3.6000061-1,5.8999939-2.7999992,5.8999939s-1.9000015-2.8999939-1.9000015-4.8999939
			c0.2000008-4.2000122,1.0999985-7,1-7.1000061c-0.7000008-0.5-2-0.6000061-2.2000008-0.5
			c-0.2999992,0.1000061-1.0999985,5.2000122-1.0999985,5.2000122c-0.4000015,1.7999878-0.2999992,3.7999878-0.2999992,3.7999878
			s-0.2999992,3.6000061-1.7000008,3.7000122c-0.5999985,0-1-0.8999939-1.0999985-1.5
			c0.2999992-1.2000122,0.4000015-2.3999939,0.4000015-3.2000122c0-7.2000122-2.4000015-8.2000122-4.0999985-8.2000122
			c-1.7999992-0.1000061-2.9000015,3.3999939-2.9000015,3.3999939c0-10,1-8.7000122,1-9.3999939
			c0-0.6000061-3.2999992-1.2999878-3.4000015-0.6000061c-0.0999985,0.7000122,0,11.6000061-0.0999985,13.7000122l-0.0999985,3
			c0,0-0.0999985,4.2999878,0.9000015,4.2999878s1.2000008-0.5,1.2000008-0.5s1.2000008,0.7000122,3,0.7000122
			c1.5,0.1000061,2.5-0.5,3.0999985-1.2999878c0.0999985,0.2999878,0.5999985,1,1.2999992,1.1000061
			c2.5999985,0,2.9000015-3,2.9000015-3c0.7000008,2.6000061,2.0999985,3,3.4000015,3.1000061
			c1.9000015,0.2000122,3.5-2.1000061,3.5-2.1000061l0.0999985,1.2000122
			c-4.0999985,3.7000122-5.9000015,5.2999878-5.7999992,7.2999878c0,0.7000122,0.2999992,3.7000122,3.9000015,3.7000122
			c3.5999985,0,4.2000008-4.3999939,4.4000015-5.1000061c0.0999985-0.2999878,0.0999985-3.1000061,0.0999985-6.5l1.5-1.7999878
			C-29.5999947,399.2000122-29.199995,397.6000061-29.8999939,397.3000183z M-47.2999954,398
			c-0.5,4.6000061-2.4000015,4.8999939-3,4.8999939s-1.5999985-0.7000122-1.5999985-0.7000122
			s-0.0999985-9.8999939,2.7000008-10.3999939C-48.4999962,391.6000061-46.7999954,393.4000244-47.2999954,398z
			 M-34.9999962,410.7000122c-0.2000008,3.2999878-3.9000015,3.2000122-3.9000015,0.6000061s4.0999985-6,4.0999985-6
			S-34.6999931,407.4000244-34.9999962,410.7000122z"/>
	</g>
	<path fill="#010101" d="M-65.7999954,400.1000061"/>
	<path fill="#010101" d="M-57.3999939,401.8000183c0,0,0.2000008,1.2000122,1.2000008,0.8999939
		C-54.8999939,402.3000183-54.3999939,400.5-54.3999939,399l0.2999992,2.8999939c0,0-1,2.3999939-2.2000008,2.3999939
		c-1.2000008,0.1000061-2.2999992-0.8999939-2.2999992-0.8999939L-57.3999939,401.8000183z"/>
</g>
<line fill="none" stroke="#000000" stroke-width="0.5" stroke-linecap="round" stroke-miterlimit="10" x1="-161.9999847" y1="379.2000122" x2="-161.9999847" y2="410.5"/>
<g>
	<circle cx="-206.3189545" cy="388.0884094" r="1.7718185"/>
	<path d="M-190.3845062,395.8869629c-0.044632-4.1491089-3.4213562-7.4989929-7.5810547-7.4989929
		c-4.1874847,0-7.5821075,3.3946228-7.5821075,7.5821228c0,4.1874695,3.3946228,7.5820923,7.5821075,7.5820923
		c1.8992004,0,3.6352692-0.6983032,4.9655609-1.8521423c-0.0041504,0.0930481-0.0085144,0.1893921-0.0131226,0.2903748
		c-0.0656891,1.4395752-0.3062134,2.221405-0.5084076,2.7416992c-0.2678375,0.6891785-0.5878296,1.1810303-1.1044922,1.6976929
		c-0.5166779,0.5166931-1.0085449,0.8366699-1.6977234,1.1044922c-0.5202942,0.2022095-1.302124,0.442749-2.7416992,0.5084229
		c-0.138916,0.0063477-0.2690582,0.0122375-0.3938599,0.0177002v0.0136414
		c-2.756958-0.0038452-3.2854309-0.0231018-4.648468-0.0852966c-1.4395752-0.0656738-2.221405-0.3062134-2.741684-0.5083923
		c-0.6891937-0.2678528-1.1810608-0.5878296-1.6977234-1.1044922s-0.8366699-1.0085449-1.1045074-1.6977234
		c-0.1161041-0.2987671-0.2447815-0.684082-0.3458099-1.2303162h-2.6952209
		c0.1220398,0.866333,0.3153076,1.5609741,0.5613098,2.1940002c0.3773346,0.9709167,0.8821869,1.794342,1.7030334,2.6152039
		c0.8208618,0.8208618,1.6442871,1.3257141,2.6152191,1.7030334c0.939209,0.3650208,2.0124969,0.6145935,3.5841064,0.6863098
		c1.5748596,0.0718689,2.0776672,0.0888367,6.0876617,0.0888367c0.2178192,0,0.4246979-0.0000305,0.6225586-0.0001526l0,0
		c0.8706055-0.1219482,1.631073-0.3238525,2.2493439-0.6105957c1.0110321-0.4688721,1.7037811-0.9926453,2.5246429-1.8134766
		c0.8208466-0.8208618,1.3256989-1.6442871,1.7030334-2.6152039c0.3650055-0.9392395,0.6145935-2.0125122,0.6863098-3.584137
		c0.0615082-1.3479919,0.0828094-1.9108887,0.0876617-4.5597229L-190.3845062,395.8869629z M-197.9655609,400.8917847
		c-2.7182007,0-4.9217224-2.2035217-4.9217224-4.9216919c0-2.7182007,2.2035217-4.9217224,4.9217224-4.9217224
		c2.7181854,0,4.9217224,2.2035217,4.9217224,4.9217224C-193.0438385,398.6882629-195.2473755,400.8917847-197.9655609,400.8917847z
		"/>
	<g>
		<path d="M-183.4650726,389.8824158c-0.071701-1.5715942-0.3213043-2.6448975-0.6863098-3.5841064
			c-0.3773346-0.9709167-0.8821869-1.794342-1.7030334-2.6152039c-0.8208618-0.8208618-1.6442871-1.3257141-2.6152191-1.7030334
			c-0.939209-0.3650208-2.0124969-0.6145935-3.5841064-0.6863098c-1.5748596-0.0718689-2.0776672-0.0888367-6.0876465-0.0888367
			c-4.0099945,0-4.5128021,0.0169678-6.0876617,0.0888367c-1.5716095,0.0717163-2.6448975,0.3212891-3.5841064,0.6863098
			c-0.970932,0.3773193-1.7943573,0.8821716-2.6152191,1.7030334c-0.8208466,0.8208618-1.3256989,1.6442871-1.7030334,2.6152039
			c-0.3650055,0.939209-0.6145935,2.0125122-0.6863098,3.5841064c-0.0718536,1.5748596-0.0888367,2.0776672-0.0888367,6.087677
			c0,4.0099792,0.016983,4.5127869,0.0888367,6.0876465c0.0084534,0.1853333,0.0195923,0.3632202,0.0328979,0.5353088h2.6702881
			c-0.0192413-0.2024231-0.03479-0.4205017-0.0455627-0.6565552c-0.0710297-1.5569763-0.0860748-2.0239258-0.0860748-5.9664001
			s0.0150452-4.4094543,0.0860748-5.9664001c0.0656891-1.4395752,0.3062134-2.221405,0.5084076-2.7416687
			c0.2678375-0.689209,0.5878296-1.1810608,1.1044922-1.6977234c0.5166779-0.5166931,1.0085449-0.8366699,1.6977386-1.1045227
			c0.5202789-0.202179,1.3021088-0.4427185,2.7416534-0.5083923c1.5569611-0.0710449,2.023941-0.0860901,5.9664154-0.0860901
			s4.4094391,0.0150452,5.9663696,0.0860901c1.4395752,0.0656738,2.221405,0.3062134,2.7416992,0.5083923
			c0.6891937,0.2678528,1.1810455,0.5878296,1.6977081,1.1044922c0.5166779,0.5166931,0.8366699,1.0085449,1.1045074,1.6977539
			c0.2021942,0.5202637,0.4427185,1.3020935,0.5084076,2.7416382c0.0710449,1.5569763,0.0860748,2.0239563,0.0860748,5.9664307
			s-0.0150299,4.4094238-0.0860748,5.9663696c-0.0656891,1.4395752-0.3062134,2.221405-0.5084076,2.7416992
			c-0.2678375,0.6891785-0.5878296,1.1810303-1.1044769,1.6976929c-0.5166931,0.5166931-1.03302,0.7807007-1.6977386,1.1045227
			c-0.4147034,0.2020264-0.6051941,0.2630615-1.437973,0.4568787c-0.2218781,0.3019104-0.475174,0.5969238-0.7697296,0.8914795
			c-0.8208466,0.8208313-1.5136108,1.3446045-2.5246277,1.8134766c-0.0628052,0.0291138-0.1274567,0.0571289-0.193161,0.0845337
			c1.3187866-0.0110474,1.301178-0.0345459,2.305069-0.0803528c1.5716095-0.0717163,2.6448975-0.3212891,3.5841064-0.6863098
			c0.970932-0.3773193,1.7943573-0.8821716,2.6152191-1.7030334c0.8208466-0.8208618,1.3256989-1.6442871,1.7030334-2.6152039
			c0.3650055-0.939209,0.6146088-2.0125122,0.6863098-3.5841064c0.0718536-1.5748596,0.0888367-2.0776672,0.0888367-6.0876465
			C-183.376236,391.960083-183.393219,391.4572754-183.4650726,389.8824158z"/>
	</g>
</g>
</svg>
