<?xml version="1.0" encoding="utf-8"?>
<!-- Generator: Adobe Illustrator 19.1.0, SVG Export Plug-In . SVG Version: 6.00 Build 0)  -->
<svg version="1.1" id="Layer_1" xmlns="http://www.w3.org/2000/svg" xmlns:xlink="http://www.w3.org/1999/xlink" x="0px" y="0px"
	 viewBox="0 0 1973.1 1972" enable-background="new 0 0 1973.1 1972" xml:space="preserve">
<linearGradient id="SVGID_1_" gradientUnits="userSpaceOnUse" x1="69.7517" y1="265.2026" x2="1753.7517" y2="1589.2026">
	<stop  offset="0" style="stop-color:#3F6AC8"/>
	<stop  offset="5.785561e-02" style="stop-color:#4C65C5"/>
	<stop  offset="0.2722" style="stop-color:#7855BB"/>
	<stop  offset="0.4793" style="stop-color:#9A48B4"/>
	<stop  offset="0.6745" style="stop-color:#B33FAE"/>
	<stop  offset="0.8532" style="stop-color:#C239AB"/>
	<stop  offset="1" style="stop-color:#C737AA"/>
</linearGradient>
<path fill="url(#SVGID_1_)" d="M1537.1,1972H436c-239.8,0-436-196.2-436-436V436C0,196.2,196.2,0,436,0h1101
	c239.8,0,436,196.2,436,436v1100C1973.1,1775.8,1776.9,1972,1537.1,1972z"/>
<radialGradient id="SVGID_2_" cx="549.0725" cy="1988" r="1941.451" gradientUnits="userSpaceOnUse">
	<stop  offset="0" style="stop-color:#FEDC55"/>
	<stop  offset="7.669444e-02" style="stop-color:#FEC852"/>
	<stop  offset="0.2344" style="stop-color:#FD934B"/>
	<stop  offset="0.406" style="stop-color:#FC5342"/>
	<stop  offset="0.5843" style="stop-color:#E34673"/>
	<stop  offset="1" style="stop-color:#E34673;stop-opacity:0"/>
</radialGradient>
<path fill="url(#SVGID_2_)" d="M1537.1,1972H436c-239.8,0-436-196.2-436-436V436C0,196.2,196.2,0,436,0h1101
	c239.8,0,436,196.2,436,436v1100C1973.1,1775.8,1776.9,1972,1537.1,1972z"/>
<g>
	<circle fill="#FFFFFF" cx="581.3" cy="595.5" r="87.8"/>
	<path fill="#FFFFFF" d="M1370.9,981.9c-2.2-205.6-169.5-371.6-375.6-371.6c-207.5,0-375.7,168.2-375.7,375.7
		s168.2,375.7,375.7,375.7c94.1,0,180.1-34.6,246-91.8c-0.2,4.6-0.4,9.4-0.7,14.4c-3.3,71.3-15.2,110.1-25.2,135.9
		c-13.3,34.1-29.1,58.5-54.7,84.1c-25.6,25.6-50,41.5-84.1,54.7c-25.8,10-64.5,21.9-135.9,25.2c-6.9,0.3-13.3,0.6-19.5,0.9v0.7
		c-136.6-0.2-162.8-1.1-230.3-4.2c-71.3-3.3-110.1-15.2-135.9-25.2c-34.1-13.3-58.5-29.1-84.1-54.7c-25.6-25.6-41.5-50-54.7-84.1
		c-5.8-14.8-12.1-33.9-17.1-61H265.5c6,42.9,15.6,77.3,27.8,108.7c18.7,48.1,43.7,88.9,84.4,129.6c40.7,40.7,81.5,65.7,129.6,84.4
		c46.5,18.1,99.7,30.5,177.6,34c78,3.6,102.9,4.4,301.6,4.4c10.8,0,21,0,30.8,0l0,0c43.1-6,80.8-16,111.5-30.3
		c50.1-23.2,84.4-49.2,125.1-89.9c40.7-40.7,65.7-81.5,84.4-129.6c18.1-46.5,30.5-99.7,34-177.6c3-66.8,4.1-94.7,4.3-225.9
		L1370.9,981.9z M995.2,1229.9c-134.7,0-243.9-109.2-243.9-243.9s109.2-243.9,243.9-243.9c134.7,0,243.9,109.2,243.9,243.9
		S1129.9,1229.9,995.2,1229.9z"/>
	<g>
		<path fill="#FFFFFF" d="M1713.8,684.4c-3.6-77.9-15.9-131.1-34-177.6c-18.7-48.1-43.7-88.9-84.4-129.6
			c-40.7-40.7-81.5-65.7-129.6-84.4c-46.5-18.1-99.7-30.5-177.6-34c-78-3.6-102.9-4.4-301.6-4.4s-223.6,0.8-301.6,4.4
			c-77.9,3.6-131.1,15.9-177.6,34c-48.1,18.7-88.9,43.7-129.6,84.4c-40.7,40.7-65.7,81.5-84.4,129.6c-18.1,46.5-30.5,99.7-34,177.6
			c-3.6,78-4.4,102.9-4.4,301.6c0,198.7,0.8,223.6,4.4,301.6c0.4,9.2,1,18,1.6,26.5h132.3c-1-10-1.7-20.8-2.3-32.5
			c-3.5-77.1-4.3-100.3-4.3-295.6s0.7-218.5,4.3-295.6c3.3-71.3,15.2-110.1,25.2-135.9c13.3-34.1,29.1-58.5,54.7-84.1
			c25.6-25.6,50-41.5,84.1-54.7c25.8-10,64.5-21.9,135.9-25.2c77.1-3.5,100.3-4.3,295.6-4.3s218.5,0.7,295.6,4.3
			c71.3,3.3,110.1,15.2,135.9,25.2c34.1,13.3,58.5,29.1,84.1,54.7c25.6,25.6,41.5,50,54.7,84.1c10,25.8,21.9,64.5,25.2,135.9
			c3.5,77.1,4.3,100.3,4.3,295.6s-0.7,218.5-4.3,295.6c-3.3,71.3-15.2,110.1-25.2,135.9c-13.3,34.1-29.1,58.5-54.7,84.1
			c-25.6,25.6-51.2,38.7-84.1,54.7c-20.5,10-30,13-71.3,22.6c-11,15-23.5,29.6-38.1,44.2c-40.7,40.7-75,66.6-125.1,89.9
			c-3.1,1.4-6.3,2.8-9.6,4.2c65.3-0.5,64.5-1.7,114.2-4c77.9-3.6,131.1-15.9,177.6-34c48.1-18.7,88.9-43.7,129.6-84.4
			c40.7-40.7,65.7-81.5,84.4-129.6c18.1-46.5,30.5-99.7,34-177.6c3.6-78,4.4-102.9,4.4-301.6S1717.3,762.4,1713.8,684.4z"/>
	</g>
</g>
</svg>
