<svg>
	<g>
		<linearGradient id="link_1" gradientUnits="userSpaceOnUse" x1="1.7729" y1="303.1465" x2="607.7725" y2="303.1465">
			<stop  offset="0" style="stop-color:#E67391"/>
			<stop  offset="1" style="stop-color:#FECD82"/>
		</linearGradient>
		<path fill="url(#link_1)" d="M519,88.9C461.8,31.7,385.7,0.1,304.8,0.1c-80.9,0-157,31.5-214.3,88.7
			C33.3,146.1,1.8,222.2,1.8,303.1c0,80.9,31.5,157,88.7,214.3s133.3,88.7,214.3,88.7c80.9,0,157-31.5,214.3-88.7
			c57.2-57.2,88.7-133.3,88.7-214.3C607.8,222.2,576.3,146.1,519,88.9z M512,510.3c-55.3,55.3-128.9,85.8-207.2,85.8
			s-151.8-30.5-207.2-85.8C42.2,455,11.8,381.4,11.8,303.1S42.2,151.3,97.6,96c55.3-55.3,128.9-85.8,207.2-85.8
			C383,10.1,456.6,40.6,512,96c55.3,55.3,85.8,128.9,85.8,207.2C597.8,381.4,567.3,455,512,510.3z"/>
		<linearGradient id="link_2" gradientUnits="userSpaceOnUse" x1="176.0447" y1="305.1634" x2="431.9554" y2="305.1634">
			<stop  offset="0" style="stop-color:#E67391"/>
			<stop  offset="1" style="stop-color:#FECD82"/>
		</linearGradient>
		<path class="button-inner" fill="url(#link_2)" d="M359.5,308.8c-10.5-10.5-27.5-10.5-37.9,0l-3.4,3.4L297,291l3.4-3.4c5-5,7.8-11.8,7.8-19
			c0-7.2-2.8-13.9-7.8-19l-64.6-64.6c-10.5-10.5-27.5-10.5-37.9,0l-14,14c-10.5,10.5-10.5,27.5,0,37.9l64.6,64.6
			c5.2,5.2,12.1,7.8,19,7.8c6.9,0,13.7-2.6,19-7.8l3.5-3.5l21.2,21.2l-3.5,3.5c-5,5-7.8,11.8-7.8,19c0,7.2,2.8,13.9,7.8,19l64.6,64.6
			c5,5,11.8,7.8,19,7.8c0,0,0,0,0,0c7.2,0,13.9-2.8,19-7.8l14-14c10.5-10.5,10.5-27.5,0-37.9L359.5,308.8z M279.3,294.5
			c-6.6,6.6-17.2,6.6-23.8,0L191,229.9c-6.6-6.6-6.6-17.2,0-23.8l14-14c3.3-3.3,7.6-4.9,11.9-4.9c4.3,0,8.6,1.6,11.9,4.9l64.6,64.6
			c3.2,3.2,4.9,7.4,4.9,11.9c0,4.5-1.7,8.7-4.9,11.9l-3.4,3.4l-29.7-29.7c-0.1-0.1-0.2-0.2-0.3-0.3c-1.9-1.6-4.7-1.5-6.6,0.1
			c-0.1,0.1-0.1,0.1-0.2,0.2c-2,2-2,5.1,0,7.1l29.7,29.7L279.3,294.5z M417,404.2l-14,14c-6.6,6.6-17.2,6.6-23.8,0l-64.6-64.6
			c-3.2-3.2-4.9-7.4-4.9-11.9c0-4.5,1.7-8.7,4.9-11.9l3.5-3.5l30.3,30.3c1,1,2.3,1.5,3.5,1.5c1.3,0,2.6-0.5,3.5-1.5
			c1.8-1.8,2-4.8,0.3-6.8c-0.1-0.1-0.2-0.2-0.3-0.3l-30.3-30.3l3.4-3.4c3.3-3.3,7.6-4.9,11.9-4.9s8.6,1.6,11.9,4.9l64.6,64.6
			C423.6,387,423.6,397.7,417,404.2z"/>
	</g>
</svg>
