<?xml version="1.0" encoding="utf-8"?>
<!-- Generator: Adobe Illustrator 19.1.0, SVG Export Plug-In . SVG Version: 6.00 Build 0)  -->
<svg version="1.1" id="Logo" xmlns="http://www.w3.org/2000/svg" xmlns:xlink="http://www.w3.org/1999/xlink" x="0px" y="0px"
	 viewBox="0 0 512 512" enable-background="new 0 0 512 512" xml:space="preserve">
<path d="M506.4,152.1c-1.2-26.8-5.5-45.1-11.7-61.2c-6.4-16.6-15.1-30.6-29.1-44.6c-14-14-28.1-22.6-44.6-29.1
	c-16-6.2-34.3-10.5-61.2-11.7C333,4.4,324.4,4.1,256,4.1s-77,0.3-103.9,1.5C125.3,6.8,107,11.1,91,17.3
	c-16.6,6.4-30.6,15.1-44.6,29.1c-14,14-22.6,28.1-29.1,44.6c-6.2,16-10.5,34.3-11.7,61.2C4.4,179,4.1,187.6,4.1,256
	c0,68.4,0.3,77,1.5,103.9c0.1,3.2,0.3,6.2,0.6,9.1h45.6c-0.3-3.5-0.6-7.2-0.8-11.2c-1.2-26.6-1.5-34.5-1.5-101.8s0.3-75.2,1.5-101.8
	c1.1-24.6,5.2-37.9,8.7-46.8c4.6-11.8,10-20.2,18.8-29c8.8-8.8,17.2-14.3,29-18.8c8.9-3.4,22.2-7.6,46.8-8.7
	c26.6-1.2,34.5-1.5,101.8-1.5s75.2,0.3,101.8,1.5c24.6,1.1,37.9,5.2,46.8,8.7c11.8,4.6,20.2,10,29,18.8c8.8,8.8,14.3,17.2,18.8,29
	c3.4,8.9,7.6,22.2,8.7,46.8c1.2,26.6,1.5,34.5,1.5,101.8s-0.3,75.2-1.5,101.8c-1.1,24.6-5.2,37.9-8.7,46.8
	c-4.6,11.8-10,20.2-18.8,29c-8.8,8.8-17.2,14.3-29,18.8c-8.9,3.4-22.2,7.6-46.8,8.7c-26.6,1.2-34.5,1.5-101.8,1.5
	s-75.2-0.3-101.8-1.5c-24.6-1.1-37.9-5.2-46.8-8.7c-11.8-4.6-20.2-10-29-18.8c-8.8-8.8-14.3-17.2-18.8-29c-2-5.1-4.2-11.7-5.9-21
	h-46c2.1,14.8,5.4,26.6,9.6,37.4c6.4,16.6,15.1,30.6,29.1,44.6c14,14,28.1,22.6,44.6,29.1c16,6.2,34.3,10.5,61.2,11.7
	c26.9,1.2,35.4,1.5,103.9,1.5s77-0.3,103.9-1.5c26.8-1.2,45.1-5.5,61.2-11.7c16.6-6.4,30.6-15.1,44.6-29.1
	c14-14,22.6-28.1,29.1-44.6c6.2-16,10.5-34.3,11.7-61.2c1.2-26.9,1.5-35.4,1.5-103.9S507.6,179,506.4,152.1z"/>
<circle cx="116.5" cy="121.5" r="30.2"/>
<radialGradient id="SVGID_1_" cx="109" cy="430" r="420.7434" gradientUnits="userSpaceOnUse">
	<stop  offset="0" style="stop-color:#FFDF7D"/>
	<stop  offset="0.2747" style="stop-color:#F46E2E"/>
	<stop  offset="0.6786" style="stop-color:#DC2B7D"/>
	<stop  offset="1" style="stop-color:#A12DBC"/>
</radialGradient>
<path fill="url(#SVGID_1_)" d="M388.3,254.6C387.6,183.8,330,126.6,259,126.6c-71.4,0-129.4,57.9-129.4,129.4S187.6,385.4,259,385.4
	c32.4,0,62-11.9,84.7-31.6c-0.1,1.6-0.1,3.2-0.2,5c-1.1,24.6-5.2,37.9-8.7,46.8c-4.6,11.8-10,20.2-18.8,29
	c-8.8,8.8-17.2,14.3-29,18.8c-8.9,3.4-22.2,7.6-46.8,8.7c-2.4,0.1-4.6,0.2-6.7,0.3v0.2c-47-0.1-56.1-0.4-79.3-1.5
	c-24.6-1.1-37.9-5.2-46.8-8.7c-11.8-4.6-20.2-10-29-18.8c-8.8-8.8-14.3-17.2-18.8-29c-2-5.1-4.2-11.7-5.9-21h-46
	c2.1,14.8,5.4,26.6,9.6,37.4c6.4,16.6,15.1,30.6,29.1,44.6c14,14,28.1,22.6,44.6,29.1c16,6.2,34.3,10.5,61.2,11.7
	c26.9,1.2,35.4,1.5,103.9,1.5c3.7,0,7.2,0,10.6,0l0,0c14.9-2.1,27.8-5.5,38.4-10.4c17.2-8,29.1-16.9,43.1-30.9
	c14-14,22.6-28.1,29.1-44.6c6.2-16,10.5-34.3,11.7-61.2c1-23,1.4-32.6,1.5-77.8L388.3,254.6z M259,340c-46.4,0-84-37.6-84-84
	c0-46.4,37.6-84,84-84c46.4,0,84,37.6,84,84C343,302.4,305.4,340,259,340z"/>
</svg>
