<?xml version="1.0" encoding="utf-8"?>
<!-- Generator: Adobe Illustrator 19.1.0, SVG Export Plug-In . SVG Version: 6.00 Build 0)  -->
<svg version="1.1" id="Layer_1" xmlns="http://www.w3.org/2000/svg" xmlns:xlink="http://www.w3.org/1999/xlink" x="0px" y="0px"
	 viewBox="0 0 527.2 145.6" enable-background="new 0 0 527.2 145.6" xml:space="preserve">
<g>
	<path fill="#FFFFFF" d="M16.4,59.5"/>
	<path fill="#010101" d="M21.2,109.9c4.5,5.4,15.7-6.9,16.9-19c1.2-12.1,1.9-82.7,1-84.6s-6.4-6.4-11.9-5S0,17.2,0,39.1
		c0,16.4,13.8,22.1,16.4,20.4s-7.1-4.3-5-20.7s14.3-28.5,14.3-28.5s2.9,82-1.8,93C22.2,107.2,19.9,108.4,21.2,109.9z"/>
	<g>
		<path fill="#010101" d="M385.7,31.7c-8.3-0.3-13.4,15.4-13.4,15.4c0-45.7,4.6-39.7,4.6-43c0-2.7-14.9-6-15.5-2.8
			c-0.6,3.1-0.1,53.2-0.3,62.7l-0.4,10.6c-0.9,5.2-3.5,17.1-7.4,17.1c-5,0-5.7-9.3-5.7-9.3s1.4-41.7-0.7-44.2
			c-2.1-2.5-10-2.9-11.1-2.5s-0.7,5.7-0.7,5.7c-1.8-2.9-7.5-7.1-12.1-7.1c-17.1,0-20.3,24.2-20.3,30.7c0,1.7,0,3.9,0.1,6.2l-0.2,1.5
			c-0.8,2.9-3.1,6.8-6.4,10.7c0.1-21.4-0.1-44-0.7-45.1c-1.1-2.1-10-3.6-11.1-3.6c-1.1,0-0.4,7.5-0.4,7.5s-2.5-9.3-13.6-8.6
			c-11.1,0.7-17.1,16-18.9,24.2s-1.1,24.2-1.1,24.2s-3.9,10-8.2,10c-4.3,0-5.3-8.9-5.3-8.9s0.4-43.1-0.7-44.6
			c-1.1-1.4-9.3-2.9-10.3-2.5c-1.1,0.4-1.8,4.6-1.8,4.6c-0.7-2.5-6.4-7.8-12.1-7.5c-16,1-20.3,26-20.3,28.5c0,2.5-0.4,10.7-0.4,10.7
			s-4.3,16.4-12.8,17.5c-8.6,1.1-4.6-58.1-4.6-58.1s17.1,1.8,18.2,0c1.1-1.8,2.5-7.5,1.8-8.9s-18.5-0.7-18.5-0.7s0.7-15.3,0-16.8
			c-0.7-1.4-8.2-4.6-11.1-4.3s-3.2,3.2-3.2,3.2l0.7,16.4h-15.7c-3.2,3.9-2.1,10.3-2.1,10.3h16c0,0,1.1,28.5,0.4,34.6
			s-11.1,17.8-11.1,17.8c5-13.6-20.3-29.6-20.3-29.6c8.2-10,8.6-19.6,3.2-19.6c-5.3,0-12.1,0.4-16,8.9c-3.9,8.6,2.9,13.9,2.9,13.9
			s-15.3,28.5-20.3,29.2c-5,0.7-0.7-42.4-1.1-44.6S89,33.9,85.4,35c-11.8,3.5-22,33.4-22,33.4l-0.5-30.9c-5.3-2.9-10.5-2.1-10.6-1.4
			c-0.8,3.6,0.1,57.1,0.1,60.6S64.2,101,64.1,96c-0.7-27.5,20-54.2,21-49.6c4.1,17.7-4.3,50.6,7.8,52.1s30-37.1,30-37.1
			c12.1,8.2,15.3,17.1,15.3,18.5s0.7,8.9-5.7,10c-6.4,1.1-10.3-5-12.8-5c-2.5,0-7.8,6.8-5.7,8.9c2.1,2.1,12.1,5,19.3,5
			c17.1,0,26.7-23.2,26.7-23.2c0.7,6.4,5.3,22.1,15.3,23.2c10,1.1,16.8-16,16.8-16c0.7,2.9,6.1,14.6,17.1,15.7
			c11.1,1.1,17.5-12.5,17.5-12.5s3.6,11.1,12.5,12.8c8.9,1.8,14.3-11.1,14.3-11.1c2.9,7.8,8.9,10.7,14.6,11.4c8.9,1.1,16-9.6,16-9.6
			l0.4,5.7c-18.9,16.8-27.1,24.2-26.7,33.5c0.1,3.2,1.4,16.8,17.8,16.8s19.3-20,20-23.5c0.3-1.4,0.5-14.3,0.6-29.5l6.9-8.3
			c0.7,2.1,1.8,4.3,1.8,4.3s3.2,8.9,13.9,9.6c12.6,0.8,18.2-12.8,18.2-12.8s4.3,13.3,12.8,13.6c5.8,0.1,9.5-4.2,11.7-8.6
			c0.6,3.9,1.7,7.1,3.5,7.1c4.6,0,5.4-2.3,5.4-2.3s5.4,3.1,13.7,3.4c19.5,0.7,20.3-20.3,20.3-29.1C404.3,36.2,393.2,32,385.7,31.7z
			 M224.2,68.5c-1.8,21.8-8.9,22.5-11.8,22.5s-10.7-6.4-8.6-24.6s7.1-22.8,11.1-22.8C219.9,43.6,226,46.8,224.2,68.5z M271.3,91
			c-8.2,0-7.8-13.6-7.8-22.5s2.9-23.9,10.7-24.6c4.3-0.4,10.3,3.6,10,20C283.7,80.3,279.5,91,271.3,91z M284.1,128.5
			c-1.1,15-17.8,14.6-17.8,2.9s18.9-27.5,18.9-27.5S285.2,113.5,284.1,128.5z M335.1,67.5c-0.7,16.9-5.7,23.2-11.8,23.2
			s-9.9-11.7-8.6-25c1.4-14.6,5.3-22.8,10.7-22.5C331.2,43.6,335.8,50,335.1,67.5z M393.2,69.1c-2.3,20.8-11.1,22.3-13.7,22.3
			c-2.6,0-7.1-3.4-7.1-3.4s-0.3-45.4,12.6-47.7C387.4,39.8,395.4,48.3,393.2,69.1z"/>
		<path fill="#010101" d="M525.5,65.9c-1.2-0.5-2.9,0.7-4.7,5.4c-1.2,3.4-3.1,6.8-6.4,10.7c0.1-21.4-0.1-44-0.7-45.1
			c-1.1-2.1-10-3.6-11.1-3.6s-0.4,7.5-0.4,7.5v21.8c-0.4,16.4-4.6,27.1-12.8,27.1c-8.2,0-8.9-13.5-8.9-22.4
			c0.8-19,5.1-31.8,4.4-32.3c-3.2-2.1-9.1-2.6-10.1-2.5c-1.2,0.2-5,24-5,24c-1.8,8.2-1.4,17.3-1.4,17.3s-1.6,16.5-7.9,17
			c-2.9,0.2-4.4-4.2-5-6.8c1.5-5.3,1.6-10.9,1.6-14.5c0-33.1-11.1-37.4-18.6-37.7c-8.3-0.3-13.4,15.4-13.4,15.4
			c0-45.7,4.6-39.7,4.6-43c0-2.7-14.9-6-15.5-2.8c-0.6,3.1-0.1,53.2-0.3,62.7l-0.6,13.7c0,0-0.3,19.7,4.3,19.7
			c4.6,0,5.4-2.3,5.4-2.3s5.4,3.1,13.7,3.4c6.8,0.2,11.3-2.2,14.4-5.8c0.7,1.4,2.7,4.8,6.1,4.8c11.8,0,13.4-13.9,13.4-13.9
			c3.2,11.7,9.8,13.6,15.5,14.3c8.9,1.1,16-9.6,16-9.6l0.4,5.7c-18.9,16.8-27.1,24.2-26.7,33.5c0.1,3.2,1.4,16.8,17.8,16.8
			c16.4,0,19.3-20,20-23.5c0.3-1.4,0.5-14.3,0.6-29.5l6.9-8.3C527.2,74.4,528.8,67.4,525.5,65.9z M446.2,69.1
			c-2.3,20.8-11.1,22.3-13.7,22.3c-2.6,0-7.1-3.4-7.1-3.4s-0.3-45.4,12.6-47.7C440.4,39.8,448.5,48.3,446.2,69.1z M502.4,127.1
			c-1.1,15-17.8,14.6-17.8,2.9s18.9-27.5,18.9-27.5S503.5,112.1,502.4,127.1z"/>
	</g>
	<path fill="#010101" d="M361.1,78.5"/>
	<path fill="#010101" d="M399.6,86.4c0,0,1.1,5.6,5.7,4.3c5.9-1.7,8.4-9.9,8.4-16.9l1.6,13.1c0,0-4.5,10.9-10.2,11.2
		c-5.7,0.2-10.5-4-10.5-4L399.6,86.4z"/>
</g>
</svg>
