<svg>
	<g>
		<linearGradient id="photo_1" gradientUnits="userSpaceOnUse" x1="0" y1="303" x2="606" y2="303">
			<stop  offset="0" style="stop-color:#6785C3"/>
			<stop  offset="1" style="stop-color:#A663A8"/>
		</linearGradient>
		<path class="button-inner" fill="url(#photo_1)" d="M517.3,88.7C460,31.5,383.9,0,303,0C222.1,0,146,31.5,88.7,88.7C31.5,146,0,222.1,0,303
			c0,80.9,31.5,157,88.7,214.3S222.1,606,303,606s157-31.5,214.3-88.7C574.5,460,606,383.9,606,303C606,222.1,574.5,146,517.3,88.7z
			 M510.2,510.2C454.8,565.5,381.3,596,303,596c-78.3,0-151.8-30.5-207.2-85.8C40.5,454.8,10,381.3,10,303S40.5,151.2,95.8,95.8
			C151.2,40.5,224.7,10,303,10c78.3,0,151.8,30.5,207.2,85.8C565.5,151.2,596,224.7,596,303S565.5,454.8,510.2,510.2z"/>
		<linearGradient id="photo_2" gradientUnits="userSpaceOnUse" x1="169.3789" y1="294.3335" x2="434.6211" y2="294.3335">
			<stop  offset="0" style="stop-color:#6785C3"/>
			<stop  offset="1" style="stop-color:#A663A8"/>
		</linearGradient>
		<path fill="url(#photo_2)" d="M409.8,219.9h-66.9c-0.1-13.8-11.3-25-25.2-25h-31.3c-13.8,0-25.1,11.2-25.2,25h-67.1
			c-13.7,0-24.8,11.1-24.8,24.8V369c0,13.7,11.1,24.8,24.8,24.8h215.6c13.7,0,24.8-11.1,24.8-24.8V244.7
			C434.6,231,423.5,219.9,409.8,219.9z M425.6,369c0,8.7-7.1,15.8-15.8,15.8H194.2c-8.7,0-15.8-7.1-15.8-15.8V244.7
			c0-8.7,7.1-15.8,15.8-15.8h71.6c2.5,0,4.5-2,4.5-4.5V220c0-8.9,7.3-16.2,16.2-16.2h31.3c8.9,0,16.2,7.3,16.2,16.2v4.4
			c0,2.5,2,4.5,4.5,4.5h71.4c8.7,0,15.8,7.1,15.8,15.8V369z"/>
		<linearGradient id="photo_3" gradientUnits="userSpaceOnUse" x1="252.4546" y1="304" x2="350.4541" y2="304">
			<stop  offset="0" style="stop-color:#6785C3"/>
			<stop  offset="1" style="stop-color:#A663A8"/>
		</linearGradient>
		<path fill="url(#photo_3)" d="M301.5,255c-27,0-49,22-49,49s22,49,49,49c27,0,49-22,49-49S328.5,255,301.5,255z M301.5,343
			c-21.5,0-39-17.5-39-39s17.5-39,39-39c21.5,0,39,17.5,39,39S323,343,301.5,343z"/>
	</g>
</svg>
